<svg xmlns="http://www.w3.org/2000/svg" id="svg4841" viewBox="0 0 22 22" version="1.1">
  <path id="path5532" fill="#ff801a" fill-opacity="1" stroke="none" stroke-opacity="1" stroke-width="2" stroke-miterlimit="4" d="M11 0A11 11 0 0 0 0 11a11 11 0 0 0 11 11 11 11 0 0 0 11-11 11 11 0 0 0-2.842-7.36C16.343 7.294 12.306 12.78 11.02 16 8.828 11.78 4.5 8.562 4.5 8.562L6.033 7s2.737 1 5.06 3.08c1.62-3.06 4.565-5.68 6.995-7.492A11 11 0 0 0 11 0zm7.088 2.588a11 11 0 0 1 1.07 1.05C20.718 1.615 22 0 22 0s-1.754.978-3.912 2.588z"/>
</svg>
