<svg xmlns="http://www.w3.org/2000/svg" viewBox="0 0 32 32" version="1.1">
  <path fill="#bababa" fill-rule="evenodd" d="M26.5 22.5h-2v-2h1v-2h-19v2h1v2h-2c-.6 0-1-.4-1-1v-10c0-1 4-2 11-2h1c6.9 0 11 1 11 2v10c0 .6-.4 1-1 1zm-2.5-10c-.8 0-1.5.7-1.5 1.5s.7 1.5 1.5 1.5 1.5-.7 1.5-1.5-.7-1.5-1.5-1.5zm-15.5-9c0-.6.4-1 1-1h13c.6 0 1 .4 1 1v5h-15v-5zm15 25c0 .6-.4 1-1 1h-13c-.6 0-1-.4-1-1v-9h15v9zm-2-8h-11v1h11v-1zm0 2h-11v1h11v-1zm0 2h-11v1h11v-1zm0 2h-11v1h11v-1z" class="st0" clip-rule="evenodd"/>
</svg>
