<svg xmlns="http://www.w3.org/2000/svg" id="svg4841" viewBox="0 0 24 24" version="1.1">
  <g id="layer1">
    <g id="g5644" fill="#bababa" fill-opacity="1">
      <path id="path5646" d="M18.466 12.748c0-3 2.437-4.5 2.625-4.593-1.404-2.062-3.654-2.343-4.404-2.343-1.875-.188-3.656 1.124-4.593 1.124-.937 0-2.437-1.124-3.937-1.03-1.968 0-3.843 1.218-4.874 3-2.155 3.654-.56 9.09 1.5 12.09 1.032 1.5 2.25 3.094 3.75 3 1.5-.094 2.062-.937 3.937-.937 1.78 0 2.342.935 3.936.935 1.593 0 2.624-1.5 3.656-2.906 1.218-1.688 1.687-3.28 1.687-3.375-.095-.188-3.188-1.406-3.28-4.968z" class="st0"/>
      <path id="path5648" d="M15.467 3.843c.843-1.03 1.406-2.437 1.218-3.843-1.218.094-2.625.844-3.562 1.78-.75.845-1.406 2.344-1.218 3.657 1.406.187 2.718-.563 3.562-1.594z" class="st0"/>
    </g>
  </g>
  <style id="style5137" type="text/css">
    .st0{fill-rule:evenodd;clip-rule:evenodd;fill:#BABABA;}
  </style>
  <style id="style5642" type="text/css">
    .st0{fill:#BABABA;}
  </style>
</svg>
